# xmcd
#
# Track frame offsets:
#	150
#	21875
#	38993
#	52737
#	67379
#	84995
#	102542
#	124013
#	143386
#	163225
#	182222
#
# Disc length: 2717 seconds
#
# Revision: 7
# Processed by: cddbd v1.5.2PL0 Copyright (c) Steve Scherf et al.
# Submitted via: EZCDAudioConverter 2.4.0.1
#
DISCID=950a9b0b
DTITLE=Chitãozinho and Xororó - Os Meninos do Brasil
DYEAR=1989
DGENRE=Sertanejo
TTITLE0=Somos assim
TTITLE1=O rio
TTITLE2=Nascemos pra cantar
TTITLE3=Brigas
TTITLE4=São coisas da vida
TTITLE5=Amor incomum
TTITLE6=Os meninos do Brasil
TTITLE7=Terra amante
TTITLE8=Página virada
TTITLE9=No rancho fundo
TTITLE10=Recomeçar
EXTD=
EXTT0=
EXTT1=
EXTT2=
EXTT3=
EXTT4=
EXTT5=
EXTT6=
EXTT7=
EXTT8=
EXTT9=
EXTT10=
PLAYORDER=
